<svg xmlns="http://www.w3.org/2000/svg" width="24" height="18" viewBox="0 0 24 18">
    <path fill="#394456" fill-rule="nonzero" d="M23.495 3.205a3.007 3.007 0 0 0-2.088-2.088c-1.87-.501-9.396-.501-9.396-.501s-7.507-.01-9.396.501A3.007 3.007 0 0 0 .527 3.205 31.247 31.247 0 0 0 .005 9.01c-.006 1.94.169 3.876.522 5.783a3.007 3.007 0 0 0 2.088 2.088c1.868.502 9.396.502 9.396.502s7.506 0 9.396-.502a3.007 3.007 0 0 0 2.088-2.088c.346-1.908.513-3.844.5-5.783a31.247 31.247 0 0 0-.5-5.805zM9.609 12.601V5.408l6.264 3.602-6.264 3.591z"/>
</svg>
