<svg xmlns="http://www.w3.org/2000/svg" width="20" height="17" viewBox="0 0 20 17">
    <path fill="#394456" fill-rule="evenodd" d="M17.8 4.21c-.106 7.325-4.59 12.336-11.294 12.653-2.767.127-4.758-.793-6.506-1.95 2.037.333 4.56-.507 5.928-1.713-2.006-.222-3.177-1.284-3.74-2.98a4.88 4.88 0 0 0 1.734-.048C2.112 9.538.82 8.364.76 5.922c.502.254 1.034.476 1.733.523C1.14 5.637.152 2.703 1.293.77c2.006 2.299 4.422 4.17 8.39 4.424-1.003-4.44 4.636-6.85 6.992-3.885 1.003-.19 1.81-.57 2.6-1.015-.32 1.015-.943 1.76-1.703 2.331.82-.111 1.566-.317 2.189-.65-.38.84-1.231 1.601-1.961 2.236z"/>
</svg>
